<?xml version="1.0" encoding="UTF-8" standalone="no"?>
<svg xmlns="http://www.w3.org/2000/svg" xmlns:xlink="http://www.w3.org/1999/xlink" contentScriptType="application/ecmascript" contentStyleType="text/css" height="215px" preserveAspectRatio="none" style="width:577px;height:215px;" version="1.1" viewBox="0 0 577 215" width="577px" zoomAndPan="magnify"><defs><filter height="300%" id="f171riiolno0zp" width="300%" x="-1" y="-1"><feGaussianBlur result="blurOut" stdDeviation="2.0"/><feColorMatrix in="blurOut" result="blurOut2" type="matrix" values="0 0 0 0 0 0 0 0 0 0 0 0 0 0 0 0 0 0 .4 0"/><feOffset dx="4.0" dy="4.0" in="blurOut2" result="blurOut3"/><feBlend in="SourceGraphic" in2="blurOut3" mode="normal"/></filter></defs><g><!--MD5=[8fc3522a43f8c7199df5e09e5bb0188e]
entity user--><ellipse cx="281.5" cy="100.5" fill="#FEFECE" filter="url(#f171riiolno0zp)" rx="8" ry="8" style="stroke:#A80036;stroke-width:1.5;"/><path d="M281.5,108.5 L281.5,135.5 M268.5,116.5 L294.5,116.5 M281.5,135.5 L268.5,150.5 M281.5,135.5 L294.5,150.5 " fill="none" filter="url(#f171riiolno0zp)" style="stroke:#A80036;stroke-width:1.5;"/><text fill="#000000" font-family="sans-serif" font-size="14" lengthAdjust="spacing" textLength="31" x="266" y="168.9951">User</text><!--MD5=[79a439086b036a57b90a01d7b2f8bbd1]
entity admin--><ellipse cx="101.5" cy="100.5" fill="#FEFECE" filter="url(#f171riiolno0zp)" rx="8" ry="8" style="stroke:#A80036;stroke-width:1.5;"/><path d="M101.5,108.5 L101.5,135.5 M88.5,116.5 L114.5,116.5 M101.5,135.5 L88.5,150.5 M101.5,135.5 L114.5,150.5 " fill="none" filter="url(#f171riiolno0zp)" style="stroke:#A80036;stroke-width:1.5;"/><text fill="#000000" font-family="sans-serif" font-size="14" lengthAdjust="spacing" textLength="46" x="78.5" y="168.9951">Admin</text><ellipse cx="101.4604" cy="27.4921" fill="#FEFECE" filter="url(#f171riiolno0zp)" rx="95.4604" ry="21.4921" style="stroke:#A80036;stroke-width:1.5;"/><text fill="#000000" font-family="sans-serif" font-size="14" lengthAdjust="spacing" textLength="154" x="24.4604" y="30.3388">Supprimer le compte</text><ellipse cx="465.9738" cy="116.3948" fill="#FEFECE" filter="url(#f171riiolno0zp)" rx="99.9738" ry="22.3948" style="stroke:#A80036;stroke-width:1.5;"/><text fill="#000000" font-family="sans-serif" font-size="14" lengthAdjust="spacing" textLength="164" x="383.9738" y="119.2414">Participer au challenge</text><ellipse cx="466.1781" cy="25.6356" fill="#FEFECE" filter="url(#f171riiolno0zp)" rx="71.1781" ry="16.6356" style="stroke:#A80036;stroke-width:1.5;"/><text fill="#000000" font-family="sans-serif" font-size="14" lengthAdjust="spacing" textLength="96" x="415.1781" y="29.3832">Se connecter</text><ellipse cx="466.0937" cy="188.7277" fill="#FEFECE" filter="url(#f171riiolno0zp)" rx="54.0937" ry="14.7277" style="stroke:#A80036;stroke-width:1.5;"/><text fill="#000000" font-family="sans-serif" font-size="14" lengthAdjust="spacing" textLength="59" x="433.5937" y="192.4753">S'incrire</text><!--MD5=[939fcc385038010e338ce6e296267232]
link user to participateChallenge--><path d="M297.126,130.2978 C312.892,129.002 339.429,126.8209 366.804,124.5709 " fill="none" id="user-to-participateChallenge" style="stroke:#A80036;stroke-width:1.0;"/><polygon fill="#A80036" points="371.923,124.1502,362.6253,120.9017,366.9398,124.5602,363.2813,128.8747,371.923,124.1502" style="stroke:#A80036;stroke-width:1.0;"/><!--MD5=[ed535c493dcd0d28a6881fc41b6f7d7c]
link user to signin--><path d="M297.279,121.0718 C313.734,109.6258 341.274,90.957 366,76.5 C386.618,64.445 410.39,52.149 429.471,42.651 " fill="none" id="user-to-signin" style="stroke:#A80036;stroke-width:1.0;"/><polygon fill="#A80036" points="434.216,40.299,424.3759,40.7135,429.7365,42.5202,427.9298,47.8808,434.216,40.299" style="stroke:#A80036;stroke-width:1.0;"/><!--MD5=[2c3bb9c3d28bf6437a757ad60ce8b50e]
link user to signup--><path d="M297.126,136.0682 C324.599,144.6486 384.772,163.4425 425.102,176.0387 " fill="none" id="user-to-signup" style="stroke:#A80036;stroke-width:1.0;"/><polygon fill="#A80036" points="429.919,177.543,422.5217,171.0407,425.1466,176.0517,420.1356,178.6765,429.919,177.543" style="stroke:#A80036;stroke-width:1.0;"/><!--MD5=[1f555c4e88f491901c622673ec1264ec]
reverse link deleteAccount to user--><path d="M150.234,48.973 C165.441,56.278 182.162,64.805 197,73.5 C222.127,88.224 249.551,108.0624 265.873,120.3056 " fill="none" id="deleteAccount-backto-user" style="stroke:#A80036;stroke-width:1.0;"/><polygon fill="#A80036" points="145.567,46.746,151.9658,54.233,150.0792,48.9,155.4122,47.0134,145.567,46.746" style="stroke:#A80036;stroke-width:1.0;"/><!--MD5=[605210d39cc29c696c4185446b2985a6]
reverse link signin to participateChallenge--><path d="M466,47.456 C466,61.396 466,79.406 466,93.537 " fill="none" id="signin-backto-participateChallenge" style="stroke:#A80036;stroke-width:1.0;stroke-dasharray:7.0,7.0;"/><polygon fill="#A80036" points="466,42.138,462,51.138,466,47.138,470,51.138,466,42.138" style="stroke:#A80036;stroke-width:1.0;"/><text fill="#000000" font-family="sans-serif" font-size="13" lengthAdjust="spacing" textLength="45" x="432" y="72.5669">include</text><!--MD5=[7ec839e1287276b81582b4c3fe19c68f]
link deleteAccount to signin--><path d="M197.269,26.977 C257.34,26.646 333.965,26.223 389.836,25.915 " fill="none" id="deleteAccount-to-signin" style="stroke:#A80036;stroke-width:1.0;stroke-dasharray:7.0,7.0;"/><polygon fill="#A80036" points="394.837,25.887,385.8143,21.9385,389.8371,25.9156,385.86,29.9384,394.837,25.887" style="stroke:#A80036;stroke-width:1.0;"/><text fill="#000000" font-family="sans-serif" font-size="13" lengthAdjust="spacing" textLength="45" x="259" y="22.5669">include</text><!--MD5=[31278c4c352e8aa61eec19ec7f7e5854]
link admin to user--><path d="M124.684,131.5 C155.03,131.5 209.799,131.5 245.652,131.5 " fill="none" id="admin-to-user" style="stroke:#A80036;stroke-width:1.0;"/><polygon fill="none" points="245.813,124.4999,265.813,131.5,245.813,138.4999,245.813,124.4999" style="stroke:#A80036;stroke-width:1.0;"/><!--MD5=[eb9347bf7197fcbe1676635e1ff1879b]
@startuml
left to right direction
actor User as user
actor Admin as admin

usecase "Supprimer le compte" as deleteAccount
usecase "Participer au challenge" as participateChallenge
usecase "Se connecter" as signin
usecase "S'incrire" as signup

user - -> participateChallenge
user - -> signin
user - -> signup
user -up-> deleteAccount

signin <. participateChallenge : include
deleteAccount .> signin : include

user <|-up- admin
@enduml

PlantUML version 1.2021.01beta7(Unknown compile time)
(GPL source distribution)
Java Runtime: Java(TM) SE Runtime Environment
JVM: Java HotSpot(TM) 64-Bit Server VM
Default Encoding: UTF-8
Language: en
Country: US
--></g></svg>